<svg version="1" xmlns="http://www.w3.org/2000/svg" width="346.667" height="346.667" viewBox="0 0 260.000000 260.000000"><path d="M0 130v130h260V0H0v130zm52.8 11.3c3.6 2.3 8.2 8.8 8.2 11.5 0 1.4-10.4 3.5-10.8 2.2-1-3-5.6-7-8.7-7.6-4.5-.8-10.4 2.1-12.9 6.4-2.4 4.3-2.6 17.3-.3 21.7 4.8 9.5 16.3 9.8 20.5.7.9-2 1.7-3.8 1.8-4 .4-.7 9.7 2.4 10.1 3.4.6 1.7-3.1 8.5-6.4 11.6-3.9 3.7-7.3 4.8-15 4.8-11.7 0-19.7-5.9-23-17-3-10.4.1-25.5 6.4-31.3 4.8-4.3 9.5-5.7 17.9-5.5 6.9.3 8.7.7 12.2 3.1zm34 23.9l-.3 26.3h-11l-.3-26.3L75 139h12l-.2 26.2zm36.7-9.6l10 16.6.3-16.6.2-16.6h10v53h-10.6l-9.9-16.3-10-16.2-.5 16-.5 16-5.2.3-5.3.3V139h5.8l5.7.1 10 16.5zm76.5-12.1v4.5h-28v11h26v9h-26v14h29v10h-40v-53h39v4.5zm36 .8c0 5.5-1.6 24.6-2.6 30.4-.4 2.9-.9 3.3-3.4 3.3-1.7 0-3-.3-3-.8 0-.4-.7-7-1.5-14.7-.8-7.7-1.5-16.1-1.5-18.8V139h12v5.3zm-1 42.2v5.5h-10v-11h10v5.5z"/></svg>